# xmcd
#
# Track frame offsets:
#	150
#	19722
#	31302
#	47627
#	62322
#	74330
#	91915
#	105467
#	121991
#	143851
#	157547
#	175336
#
# Disc length: 2531 seconds
#
# Revision: 0
# Processed by: cddbd v1.5.1PL0 Copyright (c) Steve Scherf et al.
# Submitted via: dBpowerAMP V4.0
#
DISCID=8d09e10c
DTITLE=Ray Cashman - Black and Blues
DYEAR=2005
DGENRE=Blues 
TTITLE0=Motherless Chile
TTITLE1=Lady
TTITLE2=I'm Ready
TTITLE3=Devil's Smile
TTITLE4=Gotta Move
TTITLE5=Down
TTITLE6=Bullet
TTITLE7=Time Has Come
TTITLE8=Red Johnson
TTITLE9=Personality
TTITLE10=Someday
TTITLE11=The Ghost of Fred
EXTD=Scorpion Ranch Records
EXTT0=
EXTT1=
EXTT2=
EXTT3=
EXTT4=
EXTT5=
EXTT6=
EXTT7=
EXTT8=
EXTT9=
EXTT10=
EXTT11=
PLAYORDER=
